# xmcd CD database file
#
# Track frame offsets:
#	150
#	29338
#	63415
#	102576
#	131989
#	171194
#	205869
#	232128
#	261000
#
# Disc length: 3886 seconds
#
# Revision: 0
# Processed by: cddbd v1.5.2PL0 Copyright (c) Steve Scherf et al.
# Submitted via: CDex 1.77
#
DISCID=860f2c09
DTITLE=Act Big Band - Extremes
DYEAR=1987
DGENRE=Jazz
TTITLE0=Pentaprism
TTITLE1=Omnitonic
TTITLE2=Extremes
TTITLE3=In a sentimental mood
TTITLE4=Re
TTITLE5=Easy fuck song
TTITLE6=Rough business
TTITLE7=Ana Maria
TTITLE8=Rough stuff
EXTD=YEAR: 1987
EXTT0=
EXTT1=
EXTT2=
EXTT3=
EXTT4=
EXTT5=
EXTT6=
EXTT7=
EXTT8=
PLAYORDER=
